<!-- Generated with Nano Banana -->
<svg viewBox="0 0 320 320" xmlns="http://www.w3.org/2000/svg">
  <defs>
    <linearGradient id="g3" x1="0" y1="0" x2="1" y2="1">
      <stop offset="0%" stop-color="#a4d7b7" />
      <stop offset="100%" stop-color="#5c9a69" />
    </linearGradient>
    <linearGradient id="g4" x1="0" y1="0" x2="1" y2="1">
      <stop offset="0%" stop-color="#ffd6ad" />
      <stop offset="100%" stop-color="#ffb65a" />
    </linearGradient>
  </defs>
  <rect width="320" height="320" rx="32" fill="#f8fbf5" />
  <ellipse cx="160" cy="288" rx="106" ry="16" fill="#d5ebd4" />
  <path d="M95 170c0-36 23-59 40-59s40 23 40 59-23 78-40 78-40-42-40-78Z" fill="url(#g3)" />
  <path d="M103 120c14-28 36-34 46-26" fill="none" stroke="#3b6f45" stroke-width="14" stroke-linecap="round" />
  <path d="M173 126c14-32 36-46 52-40" fill="none" stroke="#2f5b36" stroke-width="12" stroke-linecap="round" />
  <circle cx="165" cy="120" r="18" fill="url(#g4)" opacity="0.9" />
  <path d="M88 208c18 0 16-48 14-66" fill="none" stroke="#3b6f45" stroke-width="12" stroke-linecap="round" />
  <path d="M182 212c-20-18-14-64-8-74" fill="none" stroke="#3b6f45" stroke-width="14" stroke-linecap="round" />
</svg>
